<svg xmlns="http://www.w3.org/2000/svg" xmlns:xlink="http://www.w3.org/1999/xlink" width="440" height="500" viewBox="0 0 440 500" role="img" aria-labelledby="title desc"><title id="title">NodeFlow — COLLABORATION · FRONTEND</title><desc id="desc">NodeFlow — COLLABORATION · FRONTEND</desc><defs>
<pattern id="grid" width="36" height="36" patternUnits="userSpaceOnUse"><path d="M36 0H0V36" fill="none" stroke="#284153" stroke-width=".6" opacity=".35"/></pattern>
<radialGradient id="aura"><stop stop-color="#175773" stop-opacity=".6"/><stop offset="1" stop-color="#050910" stop-opacity="0"/></radialGradient>
<linearGradient id="beam"><stop stop-color="#43e8ef" stop-opacity="0"/><stop offset=".5" stop-color="#43e8ef"/><stop offset="1" stop-color="#ae8aff" stop-opacity="0"/></linearGradient>
<linearGradient id="edge"><stop stop-color="#43e8ef"/><stop offset="1" stop-color="#ae8aff"/></linearGradient>
<filter id="glow" x="-100%" y="-100%" width="300%" height="300%"><feGaussianBlur stdDeviation="3" result="blur"/><feMerge><feMergeNode in="blur"/><feMergeNode in="SourceGraphic"/></feMerge></filter>
</defs>
<style>text{font-family:Segoe UI,Arial,sans-serif}.mono{font-family:Consolas,monospace}.flow{stroke-dasharray:5 13;animation:flow 12s linear infinite}.pulse{animation:pulse 5s ease-in-out infinite}.spin{transform-box:fill-box;transform-origin:center;animation:spin 36s linear infinite}.still{display:none}@keyframes flow{to{stroke-dashoffset:-180}}@keyframes pulse{50%{opacity:.35}}@keyframes spin{to{transform:rotate(360deg)}}@media(prefers-reduced-motion:reduce){.flow,.pulse,.spin{animation:none}.motion{display:none}.still{display:inline}}</style><rect width="440" height="500" rx="16" fill="#050910"/><rect x=".5" y=".5" width="439" height="499" rx="16" fill="none" stroke="#1b3449"/><text x="24" y="32" font-size="12" fill="#43e8ef" class="mono" letter-spacing="2">AGENT SYSTEMS / SOFTWARE</text><text x="24" y="59" font-size="11" fill="#93a8bd" class="mono">COLLABORATION · FRONTEND</text><text x="23" y="103" font-size="34" fill="#eff7ff" font-weight="700">NodeFlow</text><text x="24" y="149" font-size="15" fill="#43e8ef" class="mono">React · JavaScript</text><text x="24" y="184" font-size="17" fill="#eff7ff" >A shared project brain for</text><text x="24" y="209" font-size="17" fill="#eff7ff" >people and agents.</text><path d="M24 459L416 459" stroke="#1b3449" fill="none" /><text x="24" y="487" font-size="12" fill="#93a8bd" class="mono" letter-spacing="2">OPEN REPOSITORY ↗</text><defs><linearGradient id="panel" x2="1" y2="1"><stop stop-color="#214c66"/><stop offset=".5" stop-color="#10283f"/><stop offset="1" stop-color="#09111f"/></linearGradient><linearGradient id="metal"><stop stop-color="#53819a"/><stop offset=".35" stop-color="#c4e6f3"/><stop offset=".6" stop-color="#29475f"/><stop offset="1" stop-color="#0d2134"/></linearGradient></defs><style>.float3{animation:float3 6s ease-in-out infinite}.signal{stroke-dasharray:5 17;animation:signal 4s linear infinite}.blink3{animation:blink3 4s ease-in-out infinite}.orbit3{animation:orbit3 24s linear infinite;transform-origin:0px 0px}@keyframes float3{50%{transform:translateY(-6px)}}@keyframes signal{to{stroke-dashoffset:-88}}@keyframes blink3{50%{opacity:.35}}@keyframes orbit3{to{transform:rotate(360deg)}}@media(prefers-reduced-motion:reduce){.float3,.signal,.blink3,.orbit3{animation:none!important}}</style><g transform="translate(220 345) scale(.92)"><ellipse cy="77" rx="135" ry="25" fill="#0a1a29" stroke="#1f4c63"/><ellipse cy="77" rx="105" ry="17" fill="none" stroke="#25708b" stroke-dasharray="22 12"/><path d="M0 0L-109 -45" stroke="#305d7a"/><path class="signal" d="M0 0L-109 -45" stroke="#43e8ef" stroke-width="2"/><g transform="translate(-109 -45)"><path d="M-26-16L10-25 32-9 32 18-7 29-26 13Z" fill="url(#panel)" stroke="#4888a9"/><path d="M-26-16L-7 0 32-9M-7 0V29" fill="none" stroke="#43e8ef"/><text x="1" y="9" text-anchor="middle" font-size="8" fill="#d5f9ff" class="mono">AGENT</text></g><path d="M0 0L101 -47" stroke="#305d7a"/><path class="signal" d="M0 0L101 -47" stroke="#43e8ef" stroke-width="2"/><g transform="translate(101 -47)"><path d="M-26-16L10-25 32-9 32 18-7 29-26 13Z" fill="url(#panel)" stroke="#4888a9"/><path d="M-26-16L-7 0 32-9M-7 0V29" fill="none" stroke="#43e8ef"/><text x="1" y="9" text-anchor="middle" font-size="8" fill="#d5f9ff" class="mono">REPO</text></g><path d="M0 0L-110 40" stroke="#305d7a"/><path class="signal" d="M0 0L-110 40" stroke="#43e8ef" stroke-width="2"/><g transform="translate(-110 40)"><path d="M-26-16L10-25 32-9 32 18-7 29-26 13Z" fill="url(#panel)" stroke="#4888a9"/><path d="M-26-16L-7 0 32-9M-7 0V29" fill="none" stroke="#43e8ef"/><text x="1" y="9" text-anchor="middle" font-size="8" fill="#d5f9ff" class="mono">TEAM</text></g><path d="M0 0L112 38" stroke="#305d7a"/><path class="signal" d="M0 0L112 38" stroke="#43e8ef" stroke-width="2"/><g transform="translate(112 38)"><path d="M-26-16L10-25 32-9 32 18-7 29-26 13Z" fill="url(#panel)" stroke="#4888a9"/><path d="M-26-16L-7 0 32-9M-7 0V29" fill="none" stroke="#43e8ef"/><text x="1" y="9" text-anchor="middle" font-size="8" fill="#d5f9ff" class="mono">TASK</text></g><g class="float3"><g transform="translate(0 0)"><path d="M-26-16L10-25 32-9 32 18-7 29-26 13Z" fill="url(#panel)" stroke="#4888a9"/><path d="M-26-16L-7 0 32-9M-7 0V29" fill="none" stroke="#43e8ef"/><text x="1" y="9" text-anchor="middle" font-size="8" fill="#d5f9ff" class="mono">CORE</text></g></g><ellipse rx="65" ry="51" fill="none" stroke="#9477d7" stroke-dasharray="3 10" class="blink3"/></g></svg>
